<?xml version="1.0" encoding="UTF-8"?> <!-- Generator: Adobe Illustrator 15.1.0, SVG Export Plug-In . SVG Version: 6.00 Build 0) --> <svg xmlns="http://www.w3.org/2000/svg" xmlns:xlink="http://www.w3.org/1999/xlink" version="1.1" id="Layer_1" x="0px" y="0px" width="200px" height="200px" viewBox="0 0 200 200" style="enable-background:new 0 0 200 200;" xml:space="preserve"> <style type="text/css"> <![CDATA[ .st0{clip-path:url(#SVGID_2_);fill:#427AF4;} .st1{clip-path:url(#SVGID_2_);fill:#FFFFFF;} ]]> </style> <g> <defs> <rect id="SVGID_1_" width="200" height="200"></rect> </defs> <clipPath id="SVGID_2_"> <use xlink:href="#SVGID_1_" style="overflow:visible;"></use> </clipPath> <path class="st0" d="M99.4,128.4c0.7,0,1.5,0.1,2.2,0.5c0.9,0.4,1.6,1.1,2.1,2h0.1l13.4,24.2c-1.7,0.6-3.5,1.1-5.4,1.5 c-10.3,2.3-20.5,1.6-29.7-1.5l13.4-24.2h0C96.3,129.4,97.8,128.5,99.4,128.4 M76.4,117.3c2.1,0,4,1.5,4.5,3.6c0.2,1,0.1,2-0.3,2.9 l0.1,0.1l-10.5,25.5c-9.9-6.3-17.7-15.8-21.9-27.4l27.2-4.6l0,0.1C75.8,117.3,76.1,117.3,76.4,117.3 M122.5,117.2 c0.4,0,0.7,0,1.1,0.1l0-0.1l27.4,4.6c-4,11.3-11.7,21.1-22,27.6l-10.7-25.7l0,0c-1-2.3,0-4.9,2.3-6 C121.3,117.4,121.9,117.2,122.5,117.2 M95.3,94.6h8.5l5.3,6.6l-1.9,8.2l-7.6,3.7l-7.6-3.7l-1.9-8.2L95.3,94.6z M146,74.7 c3.1,5,5.4,10.6,6.8,16.6c1.4,6,1.7,11.9,1.1,17.7l-26.7-7.7l0-0.1c-2.4-0.7-3.9-3.1-3.3-5.5c0.2-1,0.8-1.8,1.5-2.5l0-0.1L146,74.7 z M53,74.7l20.7,18.5l0,0.1c1.9,1.6,2.1,4.4,0.6,6.4c-0.6,0.8-1.5,1.3-2.4,1.6l0,0.1L45.3,109C43.9,96.7,46.9,84.7,53,74.7 M106.2,49.1c12,1.5,23.1,6.9,31.6,15.2l-22.5,16l-0.1,0c-2,1.5-4.8,1.1-6.4-0.9c-0.6-0.8-1-1.7-1-2.7l0,0L106.2,49.1z M93,49.1 l-1.6,27.6l-0.1,0.1c-0.1,2.5-2.1,4.4-4.6,4.4c-1,0-2-0.3-2.7-0.9l0,0L61.2,64.4c7-6.9,15.9-11.9,26.1-14.2 C89.2,49.7,91.1,49.4,93,49.1 M99.6,8.3c-2.9,0-5.3,2.6-5.3,5.9c0,0.1,0,0.1,0,0.1c0,0.4,0,1,0,1.4c0.1,1.9,0.5,3.3,0.7,5 c0.4,3.7,0.8,6.7,0.6,9.6c-0.2,1.1-1,2-1.7,2.7l-0.1,2.2c-3.2,0.3-6.3,0.7-9.5,1.5c-13.7,3.1-25.5,10.2-34.4,19.7 c-0.6-0.4-1.6-1.1-1.9-1.4c-0.9,0.1-1.9,0.4-3.1-0.3c-2.4-1.6-4.5-3.8-7.1-6.4c-1.2-1.3-2.1-2.5-3.5-3.7c-0.3-0.3-0.8-0.6-1.2-0.9 c-1.1-0.9-2.4-1.3-3.7-1.4c-1.6-0.1-3.2,0.6-4.2,1.9c-1.8,2.3-1.2,5.8,1.3,7.8c0,0,0.1,0,0.1,0.1c0.3,0.3,0.8,0.6,1.1,0.9 c1.5,1.1,2.9,1.7,4.4,2.6c3.2,1.9,5.8,3.6,7.8,5.5c0.8,0.9,1,2.4,1.1,3l1.7,1.5c-9,13.6-13.2,30.4-10.8,47.5l-2.2,0.6 c-0.6,0.8-1.4,1.9-2.3,2.3c-2.7,0.9-5.8,1.2-9.4,1.6c-1.7,0.1-3.2,0.1-5.1,0.4c-0.4,0.1-1,0.2-1.4,0.3c0,0,0,0,0,0c0,0-0.1,0-0.1,0 c-3.1,0.8-5.1,3.6-4.5,6.4c0.6,2.8,3.7,4.5,6.8,3.9c0,0,0.1,0,0.1,0c0,0,0.1,0,0.1,0c0.4-0.1,1-0.2,1.4-0.3 c1.8-0.5,3.1-1.2,4.7-1.8c3.5-1.2,6.4-2.3,9.2-2.7c1.2-0.1,2.4,0.7,3,1.1l2.3-0.4c5.3,16.4,16.4,29.6,30.4,37.9l-1,2.3 c0.3,0.9,0.7,2.1,0.5,3c-1,2.7-2.8,5.5-4.8,8.6c-1,1.4-2,2.6-2.8,4.2c-0.2,0.4-0.5,1-0.7,1.4c-1.4,2.9-0.4,6.2,2.2,7.5 c2.6,1.3,5.9-0.1,7.3-3c0,0,0,0,0,0v0c0.2-0.4,0.5-1,0.7-1.3c0.7-1.7,1-3.2,1.5-4.8c1.4-3.5,2.2-7.2,4.1-9.5 c0.5-0.6,1.4-0.9,2.3-1.1l1.2-2.2c12.2,4.7,25.9,6,39.6,2.9c3.1-0.7,6.1-1.6,9-2.7c0.3,0.6,1,1.7,1.1,2c0.9,0.3,1.9,0.4,2.7,1.6 c1.4,2.5,2.4,5.4,3.6,8.9c0.5,1.7,0.8,3.1,1.5,4.8c0.2,0.4,0.5,0.9,0.7,1.4c1.4,2.9,4.7,4.2,7.3,3c2.6-1.3,3.6-4.6,2.2-7.5 c-0.2-0.4-0.5-1-0.7-1.4c-0.9-1.6-1.9-2.8-2.8-4.2c-2-3.1-3.6-5.7-4.7-8.4c-0.4-1.4,0.1-2.2,0.4-3.1c-0.2-0.2-0.6-1.5-0.9-2.1 c14.6-8.6,25.3-22.4,30.4-38.2c0.7,0.1,1.9,0.3,2.3,0.4c0.8-0.5,1.5-1.2,3-1.1c2.8,0.4,5.7,1.5,9.2,2.7c1.6,0.6,2.9,1.3,4.7,1.8 c0.4,0.1,0.9,0.2,1.4,0.3c0,0,0.1,0,0.1,0c0,0,0.1,0,0.1,0c3.1,0.7,6.2-1,6.8-3.9c0.6-2.8-1.4-5.7-4.5-6.4 c-0.5-0.1-1.1-0.3-1.5-0.4c-1.8-0.3-3.3-0.3-5.1-0.4c-3.7-0.4-6.7-0.7-9.4-1.6c-1.1-0.4-1.9-1.7-2.3-2.3l-2.1-0.6 c1.1-8,0.8-16.3-1.1-24.6c-1.9-8.4-5.3-16.1-9.9-22.8c0.5-0.5,1.6-1.4,1.9-1.7c0.1-0.9,0-1.9,1-3c2.1-1.9,4.7-3.6,7.8-5.5 c1.5-0.9,2.9-1.4,4.4-2.6c0.3-0.3,0.8-0.6,1.2-0.9c2.5-2,3.1-5.5,1.3-7.8c-1.8-2.3-5.3-2.5-7.9-0.5c-0.4,0.3-0.8,0.7-1.2,0.9 c-1.4,1.2-2.3,2.4-3.5,3.7c-2.6,2.6-4.7,4.8-7.1,6.4c-1,0.6-2.5,0.4-3.2,0.3l-2,1.4c-11.4-12-27-19.6-43.7-21.1 c0-0.7-0.1-2-0.1-2.4c-0.7-0.7-1.5-1.2-1.7-2.6c-0.2-2.8,0.2-5.9,0.6-9.6c0.2-1.7,0.7-3.1,0.7-5c0-0.4,0-1,0-1.5 C104.9,10.9,102.5,8.3,99.6,8.3"></path> <rect x="43.7" y="60.5" class="st0" width="111.8" height="82"></rect> <rect x="50.1" y="69" class="st1" width="99" height="21.6"></rect> <rect x="50.1" y="112.5" class="st1" width="99" height="21.6"></rect> <path class="st0" d="M55.1,80.1L55.1,80.1c0-3.2,2.4-5.7,5.7-5.7c2.1,0,3.3,0.7,4.3,1.7l-1.5,1.8c-0.8-0.8-1.7-1.2-2.8-1.2 c-1.8,0-3.2,1.5-3.2,3.4v0c0,1.9,1.3,3.4,3.2,3.4c1.3,0,2-0.5,2.9-1.3l1.5,1.6c-1.1,1.2-2.4,2-4.5,2C57.5,85.7,55.1,83.2,55.1,80.1 "></path> <polygon class="st0" points="67.5,74.6 75.8,74.6 75.8,76.7 69.9,76.7 69.9,78.9 75.1,78.9 75.1,81.1 69.9,81.1 69.9,83.4 75.9,83.4 75.9,85.5 67.5,85.5 "></polygon> <path class="st0" d="M78.4,74.6h5c1.4,0,2.5,0.4,3.2,1.1c0.6,0.6,0.9,1.5,0.9,2.5v0c0,1.8-1,2.9-2.4,3.4l2.7,3.9h-2.8L82.7,82h0 h-1.9v3.5h-2.4V74.6z M83.3,79.9c1.2,0,1.9-0.6,1.9-1.6v0c0-1-0.7-1.6-1.9-1.6h-2.4v3.2H83.3z"></path> <polygon class="st0" points="92.7,76.8 89.4,76.8 89.4,74.6 98.5,74.6 98.5,76.8 95.1,76.8 95.1,85.5 92.7,85.5 "></polygon> <rect x="100.8" y="74.6" class="st0" width="2.4" height="11"></rect> <polygon class="st0" points="106.4,74.6 114.7,74.6 114.7,76.8 108.8,76.8 108.8,79.1 114,79.1 114,81.3 108.8,81.3 108.8,85.5 106.4,85.5 "></polygon> <rect x="117.2" y="74.6" class="st0" width="2.4" height="11"></rect> <polygon class="st0" points="122.7,74.6 131,74.6 131,76.7 125.1,76.7 125.1,78.9 130.3,78.9 130.3,81.1 125.1,81.1 125.1,83.4 131.1,83.4 131.1,85.5 122.7,85.5 "></polygon> <path class="st0" d="M133.6,74.6h4.3c3.4,0,5.8,2.4,5.8,5.5v0c0,3.1-2.4,5.5-5.8,5.5h-4.3V74.6z M137.9,83.4c2,0,3.3-1.3,3.3-3.3v0 c0-1.9-1.3-3.3-3.3-3.3H136v6.6H137.9z"></path> <path class="st0" d="M58.1,119.7h1.4l3.1,7.2H61l-0.7-1.6h-3l-0.7,1.6h-1.6L58.1,119.7z M59.8,123.9l-0.9-2.3l-0.9,2.3H59.8z"></path> <path class="st0" d="M63.7,119.8h2.8c2.2,0,3.8,1.5,3.8,3.5v0c0,2-1.5,3.6-3.8,3.6h-2.8V119.8z M66.5,125.5c1.3,0,2.1-0.9,2.1-2.1 v0c0-1.3-0.9-2.1-2.1-2.1h-1.2v4.3H66.5z"></path> <polygon class="st0" points="71.7,119.8 73.4,119.8 75.3,122.8 77.1,119.8 78.8,119.8 78.8,126.9 77.3,126.9 77.3,122.3 75.3,125.3 75.2,125.3 73.2,122.3 73.2,126.9 71.7,126.9 "></polygon> <rect x="80.6" y="119.8" class="st0" width="1.6" height="7.1"></rect> <polygon class="st0" points="84,119.8 85.4,119.8 88.8,124.2 88.8,119.8 90.3,119.8 90.3,126.9 89,126.9 85.5,122.4 85.5,126.9 84,126.9 "></polygon> <rect x="92.1" y="119.8" class="st0" width="1.6" height="7.1"></rect> <path class="st0" d="M94.9,125.9l0.9-1.1c0.6,0.5,1.3,0.9,2.1,0.9c0.6,0,1-0.3,1-0.7v0c0-0.4-0.2-0.6-1.4-0.9 c-1.4-0.4-2.4-0.8-2.4-2.2v0c0-1.3,1-2.1,2.5-2.1c1,0,1.9,0.3,2.6,0.9l-0.8,1.2c-0.6-0.4-1.3-0.7-1.9-0.7c-0.6,0-0.9,0.3-0.9,0.6v0 c0,0.5,0.3,0.6,1.5,0.9c1.4,0.4,2.3,0.9,2.3,2.1v0c0,1.4-1.1,2.2-2.6,2.2C96.9,127,95.8,126.6,94.9,125.9"></path> <polygon class="st0" points="103.5,121.2 101.3,121.2 101.3,119.8 107.2,119.8 107.2,121.2 105,121.2 105,126.9 103.5,126.9 "></polygon> <path class="st0" d="M108.4,119.8h3.3c0.9,0,1.6,0.3,2.1,0.7c0.4,0.4,0.6,1,0.6,1.6v0c0,1.1-0.6,1.9-1.5,2.2l1.7,2.5h-1.8l-1.5-2.3 h0H110v2.3h-1.6V119.8z M111.6,123.2c0.8,0,1.2-0.4,1.2-1v0c0-0.7-0.5-1-1.2-1H110v2H111.6z"></path> <path class="st0" d="M118.2,119.7h1.4l3.1,7.2h-1.6l-0.7-1.6h-3l-0.7,1.6h-1.6L118.2,119.7z M119.9,123.9l-0.9-2.3l-0.9,2.3H119.9z "></path> <polygon class="st0" points="124.6,121.2 122.4,121.2 122.4,119.8 128.3,119.8 128.3,121.2 126.1,121.2 126.1,126.9 124.6,126.9 "></polygon> <path class="st0" d="M128.9,123.4L128.9,123.4c0-2,1.6-3.7,3.8-3.7c2.2,0,3.8,1.6,3.8,3.7v0c0,2-1.6,3.7-3.8,3.7 C130.5,127,128.9,125.4,128.9,123.4 M134.8,123.4L134.8,123.4c0-1.2-0.9-2.3-2.2-2.3c-1.3,0-2.1,1-2.1,2.2v0c0,1.2,0.9,2.2,2.2,2.2 C133.9,125.6,134.8,124.6,134.8,123.4"></path> <path class="st0" d="M137.8,119.8h3.3c0.9,0,1.6,0.3,2.1,0.7c0.4,0.4,0.6,1,0.6,1.6v0c0,1.1-0.6,1.9-1.5,2.2l1.7,2.5h-1.8l-1.5-2.3 h0h-1.2v2.3h-1.6V119.8z M141,123.2c0.8,0,1.2-0.4,1.2-1v0c0-0.7-0.5-1-1.2-1h-1.6v2H141z"></path> <path class="st1" d="M53.7,101.8c0.3-0.3,0.5-0.6,0.8-0.9c0.3-0.3,0.6-0.7,0.8-1c0.3-0.3,0.5-0.6,0.8-0.9c0.2-0.3,0.4-0.5,0.6-0.8 H60c-0.6,0.8-1.3,1.5-1.9,2.2c-0.6,0.7-1.3,1.4-2,2.2c0.4,0.3,0.7,0.8,1.1,1.2c0.4,0.5,0.8,1,1.1,1.5c0.4,0.5,0.7,1,1,1.5 c0.3,0.5,0.6,1,0.8,1.4H57c-0.2-0.3-0.4-0.7-0.7-1.1c-0.3-0.4-0.5-0.8-0.8-1.2c-0.3-0.4-0.6-0.8-0.9-1.2c-0.3-0.4-0.6-0.7-0.9-0.9 v4.4h-2.7V94l2.7-0.5V101.8z"></path> <path class="st1" d="M69.7,107.9c-0.5,0.1-1.1,0.3-1.8,0.4c-0.7,0.1-1.5,0.2-2.3,0.2c-0.8,0-1.5-0.1-2-0.3c-0.5-0.2-1-0.5-1.3-1 c-0.3-0.4-0.5-0.9-0.7-1.5c-0.1-0.6-0.2-1.2-0.2-1.9v-5.6h2.7v5.2c0,0.9,0.1,1.6,0.3,2c0.2,0.4,0.7,0.6,1.3,0.6c0.2,0,0.4,0,0.6,0 c0.2,0,0.4,0,0.6-0.1v-7.7h2.7V107.9z"></path> <path class="st1" d="M81.2,103.2c0,0.8-0.1,1.5-0.3,2.2c-0.2,0.6-0.6,1.2-1,1.7c-0.4,0.5-1,0.8-1.6,1.1c-0.6,0.2-1.3,0.4-2.1,0.4 c-0.3,0-0.7,0-1,0c-0.4,0-0.7-0.1-1.1-0.1c-0.3-0.1-0.7-0.1-1-0.2c-0.3-0.1-0.6-0.1-0.8-0.2V94l2.7-0.5v5c0.3-0.1,0.6-0.2,1-0.3 c0.3-0.1,0.7-0.1,1.1-0.1c0.7,0,1.3,0.1,1.8,0.4c0.5,0.2,1,0.6,1.3,1.1s0.6,1,0.8,1.6C81.1,101.7,81.2,102.5,81.2,103.2 M78.4,103.2c0-1.8-0.6-2.7-1.9-2.7c-0.3,0-0.6,0-0.8,0.1c-0.3,0.1-0.5,0.2-0.7,0.3v5.1c0.1,0,0.3,0,0.5,0.1c0.2,0,0.4,0,0.7,0 c0.7,0,1.3-0.3,1.7-0.8S78.4,104,78.4,103.2"></path> <path class="st1" d="M82.9,103.3c0-0.9,0.1-1.7,0.4-2.3c0.3-0.7,0.6-1.2,1-1.7c0.4-0.4,0.9-0.8,1.5-1c0.6-0.2,1.1-0.3,1.7-0.3 c1.4,0,2.5,0.4,3.3,1.3c0.8,0.9,1.2,2.1,1.2,3.8c0,0.2,0,0.3,0,0.5c0,0.2,0,0.4,0,0.5h-6.2c0.1,0.6,0.3,1,0.8,1.4 c0.5,0.3,1.1,0.5,1.9,0.5c0.5,0,1,0,1.5-0.1c0.5-0.1,0.9-0.2,1.2-0.4l0.4,2.3c-0.1,0.1-0.3,0.2-0.6,0.2c-0.2,0.1-0.5,0.1-0.8,0.2 c-0.3,0.1-0.6,0.1-1,0.1c-0.3,0-0.7,0.1-1,0.1c-0.9,0-1.6-0.1-2.3-0.4c-0.6-0.3-1.2-0.6-1.6-1.1c-0.4-0.5-0.7-1-0.9-1.6 C83,104.7,82.9,104,82.9,103.3 M89.3,102.2c0-0.2-0.1-0.5-0.1-0.7c-0.1-0.2-0.2-0.4-0.3-0.6c-0.1-0.2-0.3-0.3-0.5-0.4 c-0.2-0.1-0.5-0.2-0.8-0.2c-0.3,0-0.6,0.1-0.8,0.2c-0.2,0.1-0.4,0.3-0.6,0.4c-0.1,0.2-0.3,0.4-0.3,0.6c-0.1,0.2-0.1,0.5-0.2,0.7 H89.3z"></path> <path class="st1" d="M99.9,100.7c-0.2-0.1-0.5-0.1-0.9-0.2c-0.3-0.1-0.7-0.1-1.1-0.1c-0.2,0-0.4,0-0.6,0c-0.2,0-0.4,0.1-0.5,0.1 v7.6h-2.7v-9.5c0.5-0.2,1.1-0.3,1.7-0.5c0.7-0.2,1.4-0.2,2.2-0.2c0.1,0,0.3,0,0.5,0c0.2,0,0.4,0,0.6,0.1c0.2,0,0.4,0.1,0.6,0.1 c0.2,0,0.4,0.1,0.5,0.2L99.9,100.7z"></path> <path class="st1" d="M101.8,98.6c0.5-0.1,1.1-0.3,1.8-0.4c0.7-0.1,1.5-0.2,2.3-0.2c0.8,0,1.5,0.1,2,0.3c0.5,0.2,1,0.5,1.3,0.9 c0.3,0.4,0.5,0.9,0.7,1.4c0.1,0.6,0.2,1.2,0.2,1.9v5.6h-2.7v-5.3c0-0.9-0.1-1.6-0.3-1.9c-0.2-0.4-0.7-0.6-1.3-0.6 c-0.2,0-0.4,0-0.6,0c-0.2,0-0.4,0-0.6,0.1v7.7h-2.7V98.6z"></path> <path class="st1" d="M112.2,103.3c0-0.9,0.1-1.7,0.4-2.3c0.3-0.7,0.6-1.2,1-1.7c0.4-0.4,0.9-0.8,1.5-1c0.6-0.2,1.1-0.3,1.7-0.3 c1.4,0,2.5,0.4,3.3,1.3c0.8,0.9,1.2,2.1,1.2,3.8c0,0.2,0,0.3,0,0.5c0,0.2,0,0.4,0,0.5H115c0.1,0.6,0.3,1,0.8,1.4 c0.5,0.3,1.1,0.5,1.9,0.5c0.5,0,1,0,1.5-0.1c0.5-0.1,0.9-0.2,1.2-0.4l0.4,2.3c-0.1,0.1-0.3,0.2-0.6,0.2c-0.2,0.1-0.5,0.1-0.8,0.2 c-0.3,0.1-0.6,0.1-1,0.1s-0.7,0.1-1,0.1c-0.9,0-1.6-0.1-2.3-0.4c-0.6-0.3-1.2-0.6-1.6-1.1c-0.4-0.5-0.7-1-0.9-1.6 C112.3,104.7,112.2,104,112.2,103.3 M118.6,102.2c0-0.2-0.1-0.5-0.1-0.7c-0.1-0.2-0.2-0.4-0.3-0.6s-0.3-0.3-0.5-0.4 c-0.2-0.1-0.5-0.2-0.8-0.2c-0.3,0-0.6,0.1-0.8,0.2c-0.2,0.1-0.4,0.3-0.6,0.4c-0.1,0.2-0.3,0.4-0.3,0.6c-0.1,0.2-0.1,0.5-0.2,0.7 H118.6z"></path> <path class="st1" d="M123.3,95.8l2.7-0.5v2.9h3.3v2.4H126v3.5c0,0.6,0.1,1.1,0.3,1.4c0.2,0.4,0.6,0.5,1.2,0.5c0.3,0,0.6,0,0.9-0.1 c0.3-0.1,0.6-0.1,0.9-0.2l0.4,2.2c-0.3,0.1-0.7,0.3-1.1,0.4c-0.4,0.1-0.9,0.2-1.5,0.2c-0.7,0-1.4-0.1-1.9-0.3s-0.9-0.5-1.2-0.9 c-0.3-0.4-0.5-0.8-0.6-1.4c-0.1-0.5-0.2-1.1-0.2-1.8V95.8z"></path> <path class="st1" d="M130.7,103.3c0-0.9,0.1-1.7,0.4-2.3c0.3-0.7,0.6-1.2,1-1.7c0.4-0.4,0.9-0.8,1.5-1c0.6-0.2,1.1-0.3,1.7-0.3 c1.4,0,2.5,0.4,3.3,1.3s1.2,2.1,1.2,3.8c0,0.2,0,0.3,0,0.5c0,0.2,0,0.4,0,0.5h-6.2c0.1,0.6,0.3,1,0.8,1.4c0.5,0.3,1.1,0.5,1.9,0.5 c0.5,0,1,0,1.5-0.1c0.5-0.1,0.9-0.2,1.2-0.4l0.4,2.3c-0.1,0.1-0.3,0.2-0.6,0.2c-0.2,0.1-0.5,0.1-0.8,0.2c-0.3,0.1-0.6,0.1-1,0.1 s-0.7,0.1-1,0.1c-0.9,0-1.6-0.1-2.3-0.4c-0.6-0.3-1.2-0.6-1.6-1.1c-0.4-0.5-0.7-1-0.9-1.6C130.8,104.7,130.7,104,130.7,103.3 M137.1,102.2c0-0.2-0.1-0.5-0.1-0.7c-0.1-0.2-0.2-0.4-0.3-0.6c-0.1-0.2-0.3-0.3-0.5-0.4c-0.2-0.1-0.5-0.2-0.8-0.2 c-0.3,0-0.6,0.1-0.8,0.2c-0.2,0.1-0.4,0.3-0.6,0.4c-0.1,0.2-0.3,0.4-0.3,0.6c-0.1,0.2-0.1,0.5-0.2,0.7H137.1z"></path> <path class="st1" d="M144.7,106.2c0.5,0,0.9,0,1.1-0.2c0.2-0.1,0.3-0.3,0.3-0.6c0-0.2-0.1-0.4-0.4-0.6s-0.7-0.4-1.2-0.6 c-0.4-0.2-0.8-0.3-1.2-0.5s-0.6-0.4-0.9-0.6c-0.2-0.2-0.4-0.5-0.6-0.9c-0.1-0.3-0.2-0.8-0.2-1.2c0-0.9,0.3-1.7,1-2.2 c0.7-0.5,1.6-0.8,2.8-0.8c0.6,0,1.2,0.1,1.7,0.2s1,0.2,1.3,0.4l-0.5,2.2c-0.3-0.1-0.7-0.2-1-0.3c-0.4-0.1-0.8-0.1-1.3-0.1 c-0.9,0-1.3,0.2-1.3,0.7c0,0.1,0,0.2,0.1,0.3c0,0.1,0.1,0.2,0.2,0.3c0.1,0.1,0.3,0.2,0.4,0.3c0.2,0.1,0.4,0.2,0.7,0.3 c0.6,0.2,1.1,0.5,1.5,0.7c0.4,0.2,0.7,0.5,0.9,0.7c0.2,0.3,0.4,0.5,0.5,0.9c0.1,0.3,0.1,0.7,0.1,1.1c0,1-0.4,1.7-1.1,2.2 c-0.7,0.5-1.7,0.8-3,0.8c-0.9,0-1.6-0.1-2.1-0.2c-0.6-0.2-1-0.3-1.2-0.4l0.5-2.3c0.5,0.2,0.9,0.3,1.4,0.4 C143.7,106.1,144.2,106.2,144.7,106.2"></path> </g> </svg> 